<svg width="131" height="131" viewBox="0 0 131 131" fill="none" xmlns="http://www.w3.org/2000/svg">
<g clip-path="url(#clip0_3_9)">
<path d="M65.5 118.719C61.1571 118.719 56.992 116.994 53.9211 113.923C50.8502 110.852 49.125 106.687 49.125 102.344C49.125 101.258 49.5563 100.217 50.324 99.449C51.0918 98.6813 52.133 98.25 53.2188 98.25H77.7812C78.867 98.25 79.9082 98.6813 80.676 99.449C81.4437 100.217 81.875 101.258 81.875 102.344C81.875 106.687 80.1498 110.852 77.0789 113.923C74.008 116.994 69.8429 118.719 65.5 118.719ZM58.4178 106.438C59.1375 107.678 60.1706 108.708 61.4135 109.424C62.6564 110.14 64.0656 110.517 65.5 110.517C66.9344 110.517 68.3436 110.14 69.5865 109.424C70.8294 108.708 71.8625 107.678 72.5822 106.438H58.4178Z" fill="#F5F5F5"/>
<path d="M73.6875 28.6562H57.3125C56.2268 28.6562 55.1855 28.2249 54.4178 27.4572C53.6501 26.6895 53.2188 25.6482 53.2188 24.5625C53.2188 21.3053 54.5127 18.1815 56.8158 15.8783C59.119 13.5752 62.2428 12.2813 65.5 12.2812C68.7572 12.2813 71.881 13.5752 74.1842 15.8783C76.4873 18.1815 77.7812 21.3053 77.7812 24.5625C77.7812 25.6482 77.3499 26.6895 76.5822 27.4572C75.8145 28.2249 74.7732 28.6562 73.6875 28.6562Z" fill="#F5F5F5"/>
<path d="M110.531 106.438H20.4688C19.383 106.438 18.3418 106.006 17.574 105.238C16.8063 104.471 16.375 103.429 16.375 102.344C16.3714 97.7205 17.4865 93.165 19.625 89.0661C21.7636 84.9672 24.8622 81.4465 28.6563 78.8047V57.3125C28.656 47.5833 32.504 38.249 39.3606 31.3465C46.2171 24.444 55.5254 20.5336 65.2544 20.4688H65.7047C75.4763 20.4688 84.8476 24.3505 91.7572 31.26C98.6667 38.1696 102.548 47.5409 102.548 57.3125V78.8047C106.305 81.4691 109.364 84.9996 111.466 89.0971C113.568 93.1947 114.652 97.7385 114.625 102.344C114.625 103.429 114.194 104.471 113.426 105.238C112.658 106.006 111.617 106.438 110.531 106.438ZM24.9719 98.25H106.028C105.448 95.4119 104.273 92.7292 102.579 90.3792C100.885 88.0292 98.7122 86.0655 96.2031 84.6178C95.5784 84.2571 95.0601 83.7378 94.7006 83.1124C94.3412 82.4869 94.1534 81.7776 94.1563 81.0562V57.3125C94.1563 49.7124 91.1371 42.4236 85.763 37.0495C80.3889 31.6754 73.1001 28.6563 65.5 28.6562C57.8999 28.6563 50.6111 31.6754 45.237 37.0495C39.8629 42.4236 36.8438 49.7124 36.8438 57.3125V81.0562C36.8466 81.7776 36.6588 82.4869 36.2994 83.1124C35.9399 83.7378 35.4216 84.2571 34.7969 84.6178C32.2878 86.0655 30.1147 88.0292 28.421 90.3792C26.7273 92.7292 25.5517 95.4119 24.9719 98.25Z" fill="#F5F5F5"/>
</g>
<defs>
<clipPath id="clip0_3_9">
<rect width="131" height="131" fill="white"/>
</clipPath>
</defs>
</svg>
